<svg width="415" height="102" viewBox="0 0 415 102" fill="none" xmlns="http://www.w3.org/2000/svg">
<path d="M76.88 38.45C76.88 49.07 72.58 58.67 65.62 65.63C62.6 68.65 59.07 71.18 55.17 73.06C50.11 75.51 44.43 76.89 38.43 76.89H0V10.11C0 7.53 0.97 5.17 2.56 3.39C4.41 1.31 7.1 0 10.1 0H38.44C59.67 0 76.88 17.21 76.88 38.44V38.45Z" fill="#2E2E2E"/>
<path d="M76.88 101.79H10.11C4.53001 101.79 0.0100098 97.26 0.0100098 91.69V10.11C0.0100098 7.53 0.980009 5.17 2.57001 3.39L55.19 73.05L76.89 101.78L76.88 101.79Z" fill="#1B1B1B"/>
<path d="M346.59 26.03C336.34 14.51 317.21 13.19 304.68 21.84C301.43 24.37 298.58 27.28 296.26 30.69C290.71 40.45 289.45 51.43 292.4 62.22C294.95 71.58 301.21 79.23 310.31 82.96C326.88 89.76 346.47 83.03 353.13 65.24C356.8 55.44 356.49 44.63 352.48 35.04C351.03 31.56 349.08 28.83 346.6 26.04L346.59 26.03ZM333.51 69.5C326.41 74.75 316.17 73.68 310.29 67.04C303.67 59.56 303.57 48.27 307.08 39.71C307.83 37.88 309.12 36.46 310.02 34.78C310.47 33.95 311.04 33.77 311.65 33.23C314.89 30.38 318.54 28.89 322.9 28.8C329.37 28.68 335.13 31.88 338.3 37.65C343.71 47.49 342.88 62.57 333.51 69.5Z" fill="#1B1B1B"/>
<path d="M401.25 47.2C390.82 43.08 375.05 44.32 376.23 34.91C376.58 32.16 378.86 30.02 381.62 29.22C387.05 27.66 392.68 28.52 397.77 30.88C401.77 32.74 404.39 35.88 406.29 33.64L410.78 28.35C412 26.92 411.94 25.15 410.46 23.84C399.13 13.83 373.09 12.73 364.82 26.75C361.68 32.07 361.43 38.9 363.84 44.49C364.51 46.03 365.76 47.57 366.87 48.71C375.13 57.24 389.65 55.33 397.42 60.11C398.19 60.58 399.21 61.64 399.52 62.4C401.18 66.48 399.31 70.56 395.2 71.97C389.5 73.92 383.33 73.4 377.76 70.96C370.37 67.72 368.51 63.02 365.48 66.37L361.68 70.59C360.84 71.52 359.65 73.25 360.65 74.5C369.82 85.94 391.03 88.55 403.98 81.9C409.5 79.06 413.07 74.03 413.89 67.84C415.25 57.61 410.6 50.88 401.25 47.19V47.2Z" fill="#1B1B1B"/>
<path d="M278.53 23.44C274.17 19.58 268.48 17.63 262.64 17.64L236.32 17.68C234.63 17.68 232.6 19.21 232.6 20.97V81.84C232.58 83.34 234.06 84.29 235.25 84.31C238.05 84.36 240.65 84.46 243.37 84.24C245.09 84.1 246.36 82.93 246.36 81.19L246.4 64.2L263.38 64.05C265.98 64.03 268.1 63.34 270.39 62.59C276.25 60.64 281.1 56.5 283.28 50.6C285.66 44.15 285.99 37.22 283.43 30.82C282.34 28.1 280.74 25.39 278.54 23.43L278.53 23.44ZM261.16 51.87L246.34 51.96L246.36 29.58L261.16 29.7C266.9 29.89 271.37 34.25 271.29 40.24C271.89 46.61 267.34 51.84 261.15 51.87H261.16Z" fill="#1B1B1B"/>
<path d="M222.06 17.82C221.75 17.57 221.36 17.41 220.93 17.41H210.64C209.65 17.41 208.85 18.21 208.85 19.2V28.53L208.7 57.56C208.69 60.43 208.41 63.14 207.17 65.65C204.82 70.37 200.1 73.16 194.8 72.5C186.07 73.14 180.76 66.51 180.75 58.05L180.73 28.54H180.75V19.21C180.75 18.22 179.95 17.42 178.96 17.42H168.67C167.68 17.42 166.88 18.22 166.88 19.21V28.54H166.9L166.97 59.16C166.97 63.47 167.95 67.43 169.7 71.24C175.72 84.32 190.95 87.61 203.95 84.31C212.49 82.15 219 75.76 221.37 67.33C222.4 63.66 222.74 60.14 222.73 56.26L222.67 28.54H222.73V19.21C222.73 18.94 222.67 18.7 222.57 18.47C222.48 18.19 222.31 17.98 222.07 17.83L222.06 17.82Z" fill="#1B1B1B"/>
<path d="M143.67 60.6C148.67 59.03 153.04 56.37 155.17 51.91L157.07 47.93C158.49 42.19 158.73 36.48 156.65 31C153.13 21.69 144.13 17.55 134.54 17.55L106.42 17.57C104.08 17.57 102.47 19.34 102.47 21.66L102.49 35.14V63.23H102.57C102.56 63.44 102.53 63.65 102.52 63.86L102.38 75.77C102.36 77.07 100.87 83.63 104.57 84.09C104.64 84.13 104.75 84.25 104.96 84.33C105.34 84.22 105.73 84.31 106.4 84.33C108.88 84.41 111.42 84.69 114.01 84.14C115.24 83.88 116.45 83.13 116.46 81.44L116.53 62.52L128.59 62.54L137.2 74.49C140.19 77.27 142.81 84.14 147.21 84.27C149.27 84.33 158.85 84.8 159.48 83.61C159.73 83.14 159.78 82.41 159.37 81.86L143.64 60.6H143.67ZM132.02 50.56L117.23 50.59C117 50.59 116.77 50.61 116.55 50.63V35.14H116.54L116.58 29.58L134.48 29.72C140.39 29.77 144.36 34.71 144.15 40.39C143.9 47.42 138.53 50.53 132.03 50.55L132.02 50.56Z" fill="#1B1B1B"/>
</svg>
