<svg width="77" height="102" viewBox="0 0 77 102" fill="none" xmlns="http://www.w3.org/2000/svg">
<path d="M76.88 38.45C76.88 49.07 72.58 58.67 65.62 65.63C62.6 68.65 59.07 71.18 55.17 73.06C50.11 75.51 44.43 76.89 38.43 76.89H0V10.11C0 7.53 0.97 5.17 2.56 3.39C4.41 1.31 7.1 0 10.1 0H38.44C59.67 0 76.88 17.21 76.88 38.44V38.45Z" fill="#5E5E5E"/>
<path d="M76.88 101.79H10.11C4.53001 101.79 0.0100098 97.26 0.0100098 91.69V10.11C0.0100098 7.53 0.980009 5.17 2.57001 3.39L55.19 73.05L76.89 101.78L76.88 101.79Z" fill="#474747"/>
</svg>
